<svg width="44" height="44" viewBox="0 0 44 44" fill="none" xmlns="http://www.w3.org/2000/svg">
<g clip-path="url(#clip0)">
<path d="M12.2251 12.2253C12.6024 11.8482 13.2141 11.8484 13.5913 12.2259L13.6482 12.2829C14.0253 12.6603 14.025 13.272 13.6476 13.6491C13.4589 13.8376 13.2118 13.9317 12.9648 13.9317C12.7174 13.9317 12.4701 13.8372 12.2814 13.6484L12.2245 13.5914C11.8475 13.2139 11.8478 12.6022 12.2251 12.2253ZM21.0608 9.14264V9.22314C21.0608 9.7567 21.4933 10.1892 22.0268 10.1892C22.5604 10.1892 22.9928 9.7567 22.9928 9.22314V9.14264C22.9928 8.60908 22.5604 8.17663 22.0268 8.17663C21.4933 8.17663 21.0608 8.60908 21.0608 9.14264ZM34.7778 21.008C34.2443 21.008 33.8118 21.4405 33.8118 21.974C33.8118 22.5076 34.2443 22.94 34.7778 22.94H34.8583C35.3919 22.94 35.8243 22.5076 35.8243 21.974C35.8243 21.4405 35.3919 21.008 34.8583 21.008H34.7778ZM18.6503 3.35088C18.6503 1.50376 20.153 0.000976562 22 0.000976562C23.8472 0.000976562 25.35 1.50366 25.35 3.35088C25.35 5.19789 23.8472 6.70057 22 6.70057C20.153 6.70057 18.6503 5.19789 18.6503 3.35088ZM20.5823 3.35088C20.5823 4.1326 21.2183 4.76855 22 4.76855C22.7818 4.76855 23.418 4.1326 23.418 3.35088C23.418 2.56906 22.7818 1.93299 22 1.93299C21.2183 1.93299 20.5823 2.56906 20.5823 3.35088ZM32.8191 11.182C32.1862 10.5493 31.8378 9.70808 31.8378 8.81334C31.8378 7.9186 32.1862 7.07732 32.819 6.44469C34.1252 5.13854 36.2501 5.13854 37.5564 6.44469C38.8623 7.75084 38.8623 9.87595 37.5564 11.182C36.9034 11.8349 36.0455 12.1614 35.1877 12.1614C34.3298 12.1614 33.4721 11.835 32.8191 11.182ZM33.7699 8.81334C33.7699 9.19202 33.9173 9.54805 34.185 9.81584C34.7379 10.3686 35.6373 10.3685 36.1902 9.81584C36.7429 9.26307 36.7429 8.36361 36.1901 7.81073C35.9139 7.53435 35.5506 7.39621 35.1876 7.39621C34.8245 7.39621 34.4615 7.53435 34.1851 7.81073C33.9173 8.07864 33.7699 8.43467 33.7699 8.81334ZM6.44371 11.1819C5.13767 9.87563 5.13767 7.75062 6.44382 6.44458C7.74986 5.13832 9.87519 5.13854 11.1812 6.44458C12.4873 7.75052 12.4873 9.87563 11.1812 11.1818C10.5484 11.8145 9.70732 12.163 8.81247 12.163C7.91773 12.1631 7.07655 11.8146 6.44371 11.1819ZM7.80997 9.81574C8.36274 10.3686 9.2622 10.3684 9.81508 9.81574C10.3679 9.26297 10.3679 8.3635 9.81508 7.81073C9.26231 7.25796 8.36285 7.25785 7.80997 7.81073C7.25709 8.3635 7.25709 9.26297 7.80997 9.81574ZM31.0354 13.9317C31.2829 13.9317 31.5304 13.8371 31.7191 13.6481L31.7759 13.5912C32.1528 13.2136 32.1522 12.602 31.7746 12.2251C31.3969 11.8482 30.7854 11.8486 30.4084 12.2264L30.3516 12.2832C29.9747 12.6608 29.9753 13.2724 30.3529 13.6494C30.5417 13.8377 30.7885 13.9317 31.0354 13.9317ZM25.35 40.6509C25.35 42.498 23.8472 44.0007 22 44.0007C20.153 44.0007 18.6503 42.498 18.6503 40.6509C18.6503 38.8038 20.153 37.3011 22 37.3011C23.8472 37.3011 25.35 38.8038 25.35 40.6509ZM23.418 40.6509C23.418 39.869 22.7818 39.2331 22 39.2331C21.2183 39.2331 20.5823 39.869 20.5823 40.6509C20.5823 41.4327 21.2183 42.0686 22 42.0686C22.7818 42.0687 23.418 41.4327 23.418 40.6509ZM9.14177 21.008C8.60821 21.008 8.17576 21.4405 8.17576 21.974C8.17576 22.5076 8.60821 22.94 9.14177 22.94H9.22227C9.75583 22.94 10.1883 22.5076 10.1883 21.974C10.1883 21.4405 9.75583 21.008 9.22227 21.008H9.14177ZM37.5562 32.8196C38.8622 34.1257 38.8623 36.2509 37.5563 37.557C36.9033 38.2101 36.0455 38.5366 35.1876 38.5366C34.3298 38.5366 33.4721 38.2101 32.8191 37.5572C32.819 37.5572 32.819 37.5572 32.819 37.5572C32.1862 36.9244 31.8378 36.0831 31.8378 35.1884C31.8378 34.2937 32.1862 33.4524 32.8191 32.8196C34.1251 31.5137 36.2501 31.5138 37.5562 32.8196ZM36.1901 34.1858C35.6376 33.6332 34.7381 33.6331 34.185 34.1859C33.9173 34.4536 33.7699 34.8097 33.7699 35.1884C33.7699 35.5671 33.9173 35.9231 34.1851 36.191H34.185C34.7378 36.7438 35.6374 36.7438 36.1902 36.191C36.7429 35.6381 36.7429 34.7387 36.1901 34.1858ZM31.7757 30.4102L31.7189 30.3533C31.3417 29.9758 30.73 29.9756 30.3527 30.3527C29.9753 30.7297 29.9749 31.3413 30.352 31.7188L30.4088 31.7757C30.5975 31.9645 30.8449 32.059 31.0922 32.059C31.3393 32.059 31.5864 31.9648 31.7749 31.7763C32.1524 31.3993 32.1528 30.7876 31.7757 30.4102ZM44 22.0009C44 23.848 42.4973 25.3508 40.6502 25.3508C38.8031 25.3508 37.3003 23.848 37.3003 22.0009C37.3003 20.1539 38.8031 18.6511 40.6502 18.6511C42.4973 18.6511 44 20.1538 44 22.0009ZM42.068 22.0009C42.068 21.219 41.4319 20.5831 40.6502 20.5831C39.8684 20.5831 39.2323 21.219 39.2323 22.0009C39.2323 22.7827 39.8684 23.4188 40.6502 23.4188C41.4319 23.4188 42.068 22.7827 42.068 22.0009ZM31.7943 22.5275V20.3863C31.7943 19.4973 31.0173 18.7824 29.8213 18.5332C28.592 15.4299 25.5537 13.2294 22.0181 13.2294C18.4781 13.2294 15.4158 15.4359 14.1894 18.5453C13.0259 18.805 12.2594 19.5114 12.2594 20.3862V22.5273C12.2594 23.4578 13.1196 24.1978 14.4134 24.4124C14.693 24.4589 15.0043 24.3798 15.2209 24.1962C15.4374 24.0126 15.5868 23.7432 15.5868 23.4593V21.6106C15.5868 18.0544 18.4674 15.1612 22.0236 15.1612C25.5798 15.1612 28.4666 18.0544 28.4666 21.6106C28.4666 24.3721 26.7269 26.7666 24.1702 27.6679C23.8661 27.4113 23.4703 27.2331 23.0422 27.2331H20.9797C20.0168 27.2331 19.2333 28.0412 19.2333 29.0041C19.2333 29.967 20.0168 30.7751 20.9797 30.7751H23.0422C23.8233 30.7751 24.4862 30.2582 24.7087 29.5497C27.1982 28.7081 29.1183 26.7655 29.9495 24.3521C31.0715 24.0799 31.7943 23.3841 31.7943 22.5275ZM11.1812 32.8197C12.4873 34.1259 12.4872 36.2511 11.1812 37.557C10.5281 38.2101 9.67029 38.5366 8.81247 38.5366C7.95476 38.5366 7.09695 38.2101 6.44393 37.5572C5.13788 36.2511 5.13777 34.126 6.44382 32.8199C6.44382 32.8199 6.44382 32.8199 6.44393 32.8199C7.74986 31.5139 9.87497 31.5137 11.1812 32.8197ZM9.81498 34.1859C9.26199 33.633 8.36263 33.6331 7.80976 34.1859H7.80986C7.25709 34.7387 7.25709 35.6382 7.80986 36.191C8.36253 36.7438 9.2622 36.7437 9.81498 36.191C10.3679 35.6382 10.3679 34.7388 9.81498 34.1859ZM3.34991 25.3508C1.50279 25.3508 0 23.848 0 22.0009C0 20.1539 1.50279 18.6511 3.34991 18.6511C5.19702 18.6511 6.69981 20.1538 6.69981 22.0009C6.69981 23.848 5.19702 25.3508 3.34991 25.3508ZM4.76779 22.0009C4.76779 21.219 4.13173 20.5831 3.34991 20.5831C2.56808 20.5831 1.93202 21.219 1.93202 22.0009C1.93202 22.7827 2.56808 23.4188 3.34991 23.4188C4.13173 23.4188 4.76779 22.7827 4.76779 22.0009ZM12.2817 30.3531L12.2248 30.41C11.8476 30.7873 11.8476 31.3989 12.2248 31.7761C12.4135 31.9647 12.6607 32.0591 12.9079 32.0591C13.1551 32.0591 13.4023 31.9647 13.591 31.7761L13.6479 31.7192C14.0252 31.342 14.0252 30.7304 13.6479 30.3531C13.2706 29.9758 12.659 29.9758 12.2817 30.3531ZM22.9928 34.8591V34.7786C22.9928 34.245 22.5604 33.8126 22.0268 33.8126C21.4933 33.8126 21.0608 34.245 21.0608 34.7786V34.8591C21.0608 35.3927 21.4933 35.8251 22.0268 35.8251C22.5604 35.8251 22.9928 35.3927 22.9928 34.8591Z" fill="white"/>
</g>
<defs>
<clipPath id="clip0">
<rect width="44" height="44" fill="white"/>
</clipPath>
</defs>
</svg>
