<svg width="44" height="44" viewBox="0 0 44 44" fill="none" xmlns="http://www.w3.org/2000/svg">
<g clip-path="url(#clip0)">
<path d="M0.97583 40.1006C0.97583 42.2532 2.83943 44 5.0939 44H29.268C31.2882 44 32.9702 42.5956 33.2977 40.7541C35.2389 40.4516 36.7258 38.842 36.7258 36.9043V19.3387H38.6906C38.8275 19.3415 38.9619 19.3041 39.0777 19.2316L42.6718 16.8971C42.8731 16.7668 42.9944 16.5433 42.9944 16.3035C42.9944 16.0641 42.8731 15.8406 42.6718 15.7103L39.0777 13.3522C38.9644 13.2715 38.8299 13.2247 38.6906 13.2178H36.7258V9.34641C36.7082 9.10835 36.5942 8.88796 36.4105 8.73549L28.2291 0.40059C28.1834 0.335097 28.1272 0.277575 28.0624 0.230794L28.0403 0.210003C27.9065 0.0748593 27.7239 -0.00102903 27.534 1.05417e-05H8.46279C6.44256 1.05417e-05 4.74599 1.40481 4.41853 3.24588C2.47731 3.5484 0.97583 5.15799 0.97583 7.09574V40.1006ZM13.0403 17.9194V14.6371H37.9678V17.9194H13.0403ZM39.3871 17.3362V15.2757L40.9704 16.306L39.3871 17.3362ZM28.3871 2.5563L34.2721 8.60485H29.3356C29.0892 8.61039 28.8504 8.51787 28.6727 8.34738C28.4945 8.17689 28.392 7.9423 28.3871 7.69592V2.5563ZM8.46279 1.41937H26.9678V7.69592C26.9785 8.99295 28.0385 10.0353 29.3356 10.0242H35.3065V13.2178H12.366C11.9595 13.2337 11.6345 13.5608 11.621 13.9673V14.0581L9.50894 14.0161H9.5027C9.10663 14.0265 8.79164 14.3516 8.79302 14.7476L8.8152 17.8365C8.81832 18.2264 9.13539 18.5407 9.52488 18.5403H11.621V18.6446C11.621 19.0366 11.9744 19.3387 12.366 19.3387H13.8654L13.8557 20.4032C13.8495 20.809 14.0016 21.2013 14.2795 21.4969C14.5186 21.7519 14.8495 21.9009 15.1988 21.9113H23.8158C24.2077 21.9113 24.5255 21.5935 24.5255 21.2016C24.5255 20.8097 24.2077 20.4919 23.8158 20.4919H15.2778C15.2765 20.4032 15.2754 20.4476 15.2754 20.4368L15.2855 19.3387H35.3065V36.9043C35.3065 38.2741 34.1089 39.3871 32.6372 39.3871H8.46279C6.99111 39.3871 5.76615 38.2741 5.76615 36.9043V4.01204C5.76615 3.97601 5.78937 3.93927 5.78937 3.90185C5.79145 3.87136 5.79145 3.84086 5.78937 3.81002C5.84135 2.4825 7.02437 1.41937 8.46279 1.41937V1.41937ZM11.621 17.121H10.2297L10.1996 15.4608L11.621 15.4774V17.121ZM2.39518 7.09574C2.39518 5.95777 3.28228 4.99686 4.3468 4.7037V36.9043C4.3468 39.0565 6.20866 40.8065 8.46279 40.8065H31.826C31.4978 41.871 30.476 42.5807 29.268 42.5807H5.0939C3.62222 42.5807 2.39518 41.4704 2.39518 40.1006V7.09574Z" fill="white"/>
<path d="M9.53283 25.1935H21.2009C21.5928 25.1935 21.9106 24.8758 21.9106 24.4838C21.9106 24.0919 21.5928 23.7742 21.2009 23.7742H9.53283C9.14056 23.7742 8.82315 24.0919 8.82315 24.4838C8.82315 24.8758 9.14056 25.1935 9.53283 25.1935Z" fill="#BFC4ED"/>
<path d="M9.53283 28.6532H29.8394C30.2316 28.6532 30.549 28.3355 30.549 27.9436C30.549 27.5516 30.2316 27.2339 29.8394 27.2339H9.53283C9.14056 27.2339 8.82315 27.5516 8.82315 27.9436C8.82315 28.3355 9.14056 28.6532 9.53283 28.6532V28.6532Z" fill="#BFC4ED"/>
<path d="M9.53283 32.113H29.8394C30.2316 32.113 30.549 31.7952 30.549 31.4033C30.549 31.0114 30.2316 30.6936 29.8394 30.6936H9.53283C9.14056 30.6936 8.82315 31.0114 8.82315 31.4033C8.82315 31.7952 9.14056 32.113 9.53283 32.113V32.113Z" fill="#BFC4ED"/>
<path d="M9.53283 35.5726H29.8394C30.2316 35.5726 30.549 35.2548 30.549 34.8629C30.549 34.471 30.2316 34.1532 29.8394 34.1532H9.53283C9.14056 34.1532 8.82315 34.471 8.82315 34.8629C8.82315 35.2548 9.14056 35.5726 9.53283 35.5726V35.5726Z" fill="#BFC4ED"/>
</g>
<defs>
<clipPath id="clip0">
<rect width="44" height="44" fill="white"/>
</clipPath>
</defs>
</svg>
