<svg width="44" height="44" viewBox="0 0 44 44" fill="none" xmlns="http://www.w3.org/2000/svg">
<g clip-path="url(#clip0)">
<path d="M38.1337 2.93333C38.1336 2.93333 38.1334 2.93333 38.1333 2.93333H28.6V0.733333C28.6001 0.328442 28.2719 9.16859e-05 27.867 1.91992e-08C27.8669 1.91992e-08 27.8668 1.91992e-08 27.8667 1.91992e-08H16.1333C15.7284 -9.16475e-05 15.4001 0.328075 15.4 0.732967C15.4 0.733058 15.4 0.733242 15.4 0.733333V2.93333H5.86666C5.46177 2.93324 5.13342 3.26141 5.13333 3.6663C5.13333 3.66639 5.13333 3.66658 5.13333 3.66667V43.2667C5.13324 43.6716 5.46141 43.9999 5.8663 44C5.86639 44 5.86657 44 5.86666 44H38.1333C38.5382 44.0001 38.8666 43.6719 38.8667 43.267C38.8667 43.2669 38.8667 43.2668 38.8667 43.2667V3.66667C38.8668 3.26178 38.5386 2.93343 38.1337 2.93333ZM16.8667 1.46667H27.1333V5.86667H16.8667V1.46667ZM37.4 42.5333H6.6V4.4H15.4V6.6C15.3999 7.00489 15.7281 7.33324 16.133 7.33333C16.1331 7.33333 16.1332 7.33333 16.1333 7.33333H27.8667C28.2716 7.33343 28.5999 7.00526 28.6 6.60037C28.6 6.60027 28.6 6.60009 28.6 6.6V4.4H37.4V42.5333Z" fill="white"/>
<path d="M24.2 33.7333H8.06668V35.2H24.2V33.7333Z" fill="white"/>
<path d="M35.9334 33.7333H25.6667V35.2H35.9334V33.7333Z" fill="white"/>
<path d="M35.9333 36.6667H8.06668V38.1334H35.9333V36.6667Z" fill="white"/>
<path d="M19.8 39.6H8.06668V41.0667H19.8V39.6Z" fill="white"/>
<path d="M35.9333 39.6H21.2667V41.0667H35.9333V39.6Z" fill="white"/>
<path d="M13.2004 21.2667C13.2003 21.2667 13.2001 21.2667 13.2 21.2667H8.80001C8.39512 21.2666 8.06677 21.5947 8.06668 21.9996C8.06668 21.9997 8.06668 21.9999 8.06668 22V31.5333C8.06659 31.9382 8.39476 32.2666 8.79965 32.2667C8.79974 32.2667 8.79992 32.2667 8.80001 32.2667H13.2C13.6049 32.2668 13.9333 31.9386 13.9333 31.5337C13.9333 31.5336 13.9333 31.5334 13.9333 31.5333V22C13.9334 21.5951 13.6053 21.2668 13.2004 21.2667ZM12.4667 30.8H9.53335V22.7333H12.4667V30.8Z" fill="white"/>
<path d="M20.5337 18.3333C20.5336 18.3333 20.5334 18.3333 20.5333 18.3333H16.1333C15.7284 18.3332 15.4001 18.6614 15.4 19.0663C15.4 19.0664 15.4 19.0666 15.4 19.0666V31.5333C15.3999 31.9382 15.7281 32.2666 16.133 32.2666C16.1331 32.2666 16.1332 32.2666 16.1333 32.2666H20.5333C20.9382 32.2667 21.2666 31.9386 21.2667 31.5337C21.2667 31.5336 21.2667 31.5334 21.2667 31.5333V19.0666C21.2668 18.6618 20.9386 18.3334 20.5337 18.3333ZM19.8 30.8H16.8667V19.8H19.8V30.8Z" fill="white"/>
<path d="M27.867 15.4C27.8669 15.4 27.8668 15.4 27.8667 15.4H23.4667C23.0618 15.3999 22.7334 15.7281 22.7333 16.133C22.7333 16.1331 22.7333 16.1333 22.7333 16.1334V31.5334C22.7332 31.9383 23.0614 32.2666 23.4663 32.2667C23.4664 32.2667 23.4666 32.2667 23.4667 32.2667H27.8667C28.2716 32.2668 28.5999 31.9386 28.6 31.5337C28.6 31.5336 28.6 31.5335 28.6 31.5334V16.1334C28.6001 15.7285 28.2719 15.4001 27.867 15.4ZM27.1333 30.8H24.2V16.8667H27.1333V30.8Z" fill="white"/>
<path d="M35.2004 12.4667C35.2003 12.4667 35.2001 12.4667 35.2 12.4667H30.8C30.3951 12.4666 30.0668 12.7948 30.0667 13.1996C30.0667 13.1997 30.0667 13.1999 30.0667 13.2V31.5333C30.0666 31.9382 30.3948 32.2666 30.7996 32.2667C30.7997 32.2667 30.7999 32.2667 30.8 32.2667H35.2C35.6049 32.2668 35.9333 31.9386 35.9333 31.5337C35.9333 31.5336 35.9333 31.5334 35.9333 31.5333V13.2C35.9334 12.7951 35.6053 12.4668 35.2004 12.4667ZM34.4667 30.8H31.5333V13.9333H34.4667V30.8Z" fill="white"/>
<path d="M35.0561 7.34766L27.7228 8.81432C27.6289 8.83311 27.5396 8.87015 27.46 8.92322L21.0447 13.2H14.6667C14.5293 13.2 14.3946 13.2387 14.2782 13.3118L8.41156 16.9784L9.18862 18.2217L14.8769 14.6667H21.2667C21.4115 14.6666 21.553 14.6238 21.6735 14.5435L28.1529 10.2237L35.3441 8.78563L35.0561 7.34766Z" fill="white"/>
</g>
<defs>
<clipPath id="clip0">
<rect width="44" height="44" fill="white"/>
</clipPath>
</defs>
</svg>
