<svg width="44" height="44" viewBox="0 0 44 44" fill="none" xmlns="http://www.w3.org/2000/svg">
<path d="M9.53333 0C8.39887 0 7.30913 0.485467 6.5428 1.33247C5.78967 2.16627 5.4186 3.2824 5.51833 4.4H5.5V40.3025C5.5 42.3412 7.1588 44 9.19747 44H38.5V8.06667V6.6V0H9.53333ZM6.96667 40.3025V7.33187C7.57973 7.79313 8.34167 8.06667 9.16667 8.06667V42.5304C7.9508 42.5135 6.96667 41.5221 6.96667 40.3025ZM37.0333 42.5333H10.6333V8.06667H12.8333V26.5474C12.8333 27.0475 13.1567 27.4729 13.6393 27.6063C13.7397 27.6335 13.8395 27.6474 13.9385 27.6474C13.9495 27.6474 13.9597 27.6437 13.9707 27.643C14.0037 27.6423 14.0353 27.6342 14.0683 27.6305C14.1438 27.6217 14.2164 27.6063 14.2875 27.5821C14.3227 27.5704 14.3557 27.5565 14.3887 27.5411C14.4577 27.5095 14.5207 27.4699 14.5816 27.4245C14.608 27.4047 14.6351 27.3878 14.6593 27.3658C14.7407 27.2932 14.8148 27.2111 14.8735 27.1121L17.9659 21.9582L21.0584 27.1128C21.2982 27.5125 21.747 27.7002 22.1951 27.6166C22.2281 27.6107 22.2603 27.6151 22.2933 27.6063C22.7751 27.4721 23.0993 27.0468 23.0993 26.5474V8.06667H37.0326V42.5333H37.0333ZM21.736 6.9542L21.7338 6.95933L21.6333 7.16027V7.19107L21.56 7.35973L21.6333 7.4712V7.55333V25.2193L17.9667 19.1085L14.3 25.2193V7.5064L15.4865 5.13333H22.6468L21.736 6.9542ZM23.5532 6.6L25.0199 3.66667H14.5801L13.1135 6.6H9.6888C8.29987 6.6 7.1104 5.58873 6.9806 4.29733C6.90653 3.56547 7.13753 2.8622 7.63107 2.3166C8.11873 1.77613 8.81247 1.46667 9.53333 1.46667H37.0333V2.2H33.3667C32.9611 2.2 32.6333 2.5278 32.6333 2.93333C32.6333 3.33887 32.9611 3.66667 33.3667 3.66667H37.0333V4.4H34.1C33.6945 4.4 33.3667 4.7278 33.3667 5.13333C33.3667 5.53887 33.6945 5.86667 34.1 5.86667H37.0333V6.6H23.5532Z" fill="white"/>
</svg>
