<svg width="44" height="44" viewBox="0 0 44 44" fill="none" xmlns="http://www.w3.org/2000/svg">
<path d="M17.3594 38.8438C17.1335 38.8438 16.9116 38.9357 16.7518 39.0955C16.592 39.2553 16.5 39.4772 16.5 39.7031C16.5 39.929 16.592 40.1509 16.7518 40.3107C16.9116 40.4705 17.1335 40.5625 17.3594 40.5625C17.5853 40.5625 17.8072 40.4705 17.967 40.3107C18.1268 40.1509 18.2188 39.929 18.2188 39.7031C18.2188 39.4772 18.1268 39.2553 17.967 39.0955C17.8072 38.9357 17.5853 38.8438 17.3594 38.8438Z" fill="white"/>
<path d="M43.0826 11.715C41.8613 10.4938 39.8743 10.4938 38.6531 11.715L34.7188 15.6494V2.92188C34.7188 1.31088 33.4079 0 31.7969 0H2.92188C1.31088 0 0 1.31088 0 2.92188V41.0781C0 42.6891 1.31088 44 2.92188 44H31.7969C33.4079 44 34.7188 42.6891 34.7188 41.0781V24.5086L43.0826 16.1445C44.3038 14.9232 44.3038 12.9363 43.0826 11.715V11.715ZM33 2.92188V17.3681L31.2812 19.0869V4.29688C31.2812 3.8222 30.8965 3.4375 30.4219 3.4375H24.6785V1.71875H31.7969C32.4602 1.71875 33 2.25854 33 2.92188ZM28.3077 26.4899L29.4678 23.8836L30.914 25.3297L28.3077 26.4899ZM22.9597 1.71875V5.2207C22.9597 5.75378 22.526 6.1875 21.993 6.1875H12.7258C12.1927 6.1875 11.759 5.75378 11.759 5.2207V1.71875H22.9597ZM31.7969 42.2812H2.92188C2.25854 42.2812 1.71875 41.7415 1.71875 41.0781V2.92188C1.71875 2.25854 2.25854 1.71875 2.92188 1.71875H10.0403V3.4375H4.29688C3.8222 3.4375 3.4375 3.8222 3.4375 4.29688V39.7031C3.4375 40.1778 3.8222 40.5625 4.29688 40.5625H13.9219C14.3965 40.5625 14.7812 40.1778 14.7812 39.7031C14.7812 39.2285 14.3965 38.8438 13.9219 38.8438H5.15625V5.15625H10.0403V5.2207C10.0403 6.70145 11.2451 7.90625 12.7258 7.90625H21.993C23.4737 7.90625 24.6785 6.70145 24.6785 5.2207V5.15625H29.5625V20.8056L28.5836 21.7841C28.5094 21.8587 28.4493 21.9463 28.4064 22.0423L25.8269 27.836C25.6822 28.1613 25.7527 28.5417 26.0042 28.7934C26.169 28.9579 26.3889 29.0452 26.6121 29.0452C26.7303 29.0452 26.8491 29.021 26.9615 28.971L29.5625 27.8129V38.8438H20.7969C20.3222 38.8438 19.9375 39.2285 19.9375 39.7031C19.9375 40.1778 20.3222 40.5625 20.7969 40.5625H30.4219C30.8962 40.5625 31.2812 40.1778 31.2812 39.7031V27.0475L32.7553 26.3912C32.8459 26.3509 32.9282 26.2949 33 26.226V41.0781C33 41.7415 32.4602 42.2812 31.7969 42.2812V42.2812ZM38.6642 18.1321L32.4058 24.3908L30.4068 22.3918L38.1556 14.6429L40.1546 16.642L38.6642 18.1321ZM41.8673 14.9293L41.3698 15.4265L39.3711 13.4277L39.8683 12.9306C40.4195 12.3794 41.3161 12.3794 41.8673 12.9306C42.4182 13.4814 42.4182 14.3781 41.8673 14.9293V14.9293Z" fill="white"/>
<path d="M13.9219 10.3125H8.42188C7.9472 10.3125 7.5625 10.6972 7.5625 11.1719V16.6719C7.5625 17.1465 7.9472 17.5312 8.42188 17.5312H13.9219C14.3965 17.5312 14.7812 17.1465 14.7812 16.6719V11.1719C14.7812 10.6972 14.3965 10.3125 13.9219 10.3125ZM13.0625 15.8125H9.28125V12.0312H13.0625V15.8125Z" fill="white"/>
<path d="M13.9219 19.7656H8.42188C7.9472 19.7656 7.5625 20.1503 7.5625 20.625V26.125C7.5625 26.5997 7.9472 26.9844 8.42188 26.9844H13.9219C14.3965 26.9844 14.7812 26.5997 14.7812 26.125V20.625C14.7812 20.1503 14.3965 19.7656 13.9219 19.7656ZM13.0625 25.2656H9.28125V21.4844H13.0625V25.2656Z" fill="white"/>
<path d="M13.9219 29.2188H8.42188C7.9472 29.2188 7.5625 29.6035 7.5625 30.0781V35.5781C7.5625 36.0528 7.9472 36.4375 8.42188 36.4375H13.9219C14.3965 36.4375 14.7812 36.0528 14.7812 35.5781V30.0781C14.7812 29.6035 14.3965 29.2188 13.9219 29.2188ZM13.0625 34.7188H9.28125V30.9375H13.0625V34.7188Z" fill="white"/>
<path d="M20.0731 16.4695C20.241 16.6373 20.4608 16.7213 20.6807 16.7213C20.9006 16.7213 21.1205 16.6373 21.2883 16.4695L25.1683 12.5895C25.5036 12.2542 25.5036 11.71 25.1683 11.3743C24.8326 11.0386 24.2884 11.0386 23.9527 11.3743L20.6807 14.6463L19.3765 13.3422C19.0409 13.0065 18.497 13.0065 18.161 13.3422C17.8256 13.6779 17.8256 14.222 18.161 14.5574L20.0731 16.4695Z" fill="white"/>
<path d="M20.0731 25.9226C20.2342 26.0837 20.4528 26.1744 20.6807 26.1744C20.9087 26.1744 21.1272 26.0837 21.2883 25.9226L25.1683 22.043C25.5036 21.7073 25.5036 21.1631 25.1683 20.8274C24.8326 20.4921 24.2884 20.4921 23.9527 20.8274L20.6807 24.0998L19.3765 22.7956C19.0409 22.4599 18.497 22.4599 18.161 22.7956C17.8256 23.131 17.8256 23.6751 18.161 24.0108L20.0731 25.9226Z" fill="white"/>
<path d="M21.6646 34.0437L22.997 35.3757C23.1648 35.5436 23.3847 35.6275 23.6046 35.6275C23.8245 35.6275 24.0444 35.5436 24.2122 35.3757C24.5479 35.04 24.5479 34.4959 24.2122 34.1605L22.8802 32.8282L24.2122 31.4958C24.5479 31.1604 24.5479 30.6163 24.2122 30.2806C23.8765 29.9449 23.3327 29.9449 22.997 30.2806L21.6646 31.6126L20.3326 30.2806C19.9969 29.9452 19.4531 29.9449 19.1171 30.2806C18.7817 30.6163 18.7817 31.1604 19.1171 31.4958L20.4494 32.8282L19.1171 34.1605C18.7817 34.4959 18.7817 35.04 19.1171 35.3757C19.2849 35.5436 19.5051 35.6275 19.725 35.6275C19.9449 35.6275 20.1648 35.5436 20.3326 35.3757L21.6646 34.0437Z" fill="white"/>
</svg>
